<svg xmlns="http://www.w3.org/2000/svg" width="17.728" height="19.1" viewBox="0 0 17.728 19.1">
  <g id="Profile" transform="translate(-260 -741.94)">
    <path id="Vector" d="M4.323,8.645A4.334,4.334,0,1,0,1.265,7.371,4.323,4.323,0,0,0,4.323,8.645Z" transform="translate(264.548 741.94)" fill="#2c3d7a"/>
    <path id="Vector-2" data-name="Vector" d="M17.623,5.938a9.419,9.419,0,0,0-17.5,0A1.655,1.655,0,0,0,.3,7.5a1.691,1.691,0,0,0,1.417.75H16A1.715,1.715,0,0,0,17.42,7.5a1.691,1.691,0,0,0,.2-1.56Z" transform="translate(260 752.792)" fill="#2c3d7a"/>
  </g>
</svg>
